<?xml version="1.0" encoding="utf-8"?>
<!-- Svg Vector Icons : http://www.onlinewebfonts.com/icon -->
<!DOCTYPE svg PUBLIC "-//W3C//DTD SVG 1.1//EN" "http://www.w3.org/Graphics/SVG/1.1/DTD/svg11.dtd">
<svg version="1.1" xmlns="http://www.w3.org/2000/svg" xmlns:xlink="http://www.w3.org/1999/xlink" x="0px" y="0px" viewBox="0 0 1000 1000" enable-background="new 0 0 1000 1000" xml:space="preserve">
<metadata> Svg Vector Icons : http://www.onlinewebfonts.com/icon </metadata>
<g><path d="M227.3,79.7l142.8-63.6l45.6,102.3c49.7-11,100.1-12,148.6-3.9L604.4,10l145.9,56l-40.1,104.6c41.5,26.4,78.3,60.8,107.8,102.3l102.3-45.6l63.6,142.8l-102.3,45.6c11,49.7,12,100.1,3.9,148.6L990,604.4l-56,145.9l-104.6-40.1C803,751.6,768.6,788.5,727.1,818l45.6,102.3l-142.8,63.6l-45.6-102.3c-49.7,11-100.1,12-148.6,3.9L395.6,990l-145.9-56l40.2-104.6C248.4,803,211.5,768.6,182,727.1L79.7,772.7L16.1,629.9l102.3-45.6c-11-49.7-12-100.1-3.9-148.6L10,395.6l56-145.9l104.6,40.1c26.4-41.5,60.8-78.3,102.3-107.8L227.3,79.7z M404.7,285.9c-118.3,52.7-171.5,191.2-118.8,309.5c52.7,118.3,191.2,171.5,309.5,118.8c118.3-52.7,171.5-191.2,118.8-309.5C661.5,286.4,522.9,233.2,404.7,285.9z"/></g>
</svg>